<svg xmlns="http://www.w3.org/2000/svg" xmlns:xlink="http://www.w3.org/1999/xlink" width="500" zoomAndPan="magnify" viewBox="0 0 375 374.999991" height="500" preserveAspectRatio="xMidYMid meet" version="1.0"><defs><g/><clipPath id="fa7e9b0358"><rect x="0" width="263" y="0" height="59"/></clipPath></defs><rect x="-37.5" width="450" fill="#ffffff" y="-37.499999" height="449.999989" fill-opacity="1"/><rect x="-37.5" width="450" fill="#000000" y="-37.499999" height="449.999989" fill-opacity="1"/><g transform="matrix(1, 0, 0, 1, 57, 158)"><g clip-path="url(#fa7e9b0358)"><g fill="#ffffff" fill-opacity="1"><g transform="translate(0.262735, 42.416601)"><g><path d="M 13.390625 0.296875 C 11.210938 0.296875 9.257812 -0.0546875 7.53125 -0.765625 C 5.8125 -1.472656 4.4375 -2.519531 3.40625 -3.90625 C 2.375 -5.289062 1.832031 -6.957031 1.78125 -8.90625 L 9.5 -8.90625 C 9.613281 -7.800781 9.992188 -6.957031 10.640625 -6.375 C 11.285156 -5.800781 12.132812 -5.515625 13.1875 -5.515625 C 14.257812 -5.515625 15.101562 -5.757812 15.71875 -6.25 C 16.34375 -6.75 16.65625 -7.4375 16.65625 -8.3125 C 16.65625 -9.039062 16.40625 -9.644531 15.90625 -10.125 C 15.414062 -10.613281 14.8125 -11.007812 14.09375 -11.3125 C 13.375 -11.625 12.347656 -11.976562 11.015625 -12.375 C 9.097656 -12.96875 7.53125 -13.5625 6.3125 -14.15625 C 5.101562 -14.75 4.054688 -15.625 3.171875 -16.78125 C 2.296875 -17.945312 1.859375 -19.460938 1.859375 -21.328125 C 1.859375 -24.097656 2.863281 -26.265625 4.875 -27.828125 C 6.882812 -29.398438 9.5 -30.1875 12.71875 -30.1875 C 16 -30.1875 18.640625 -29.398438 20.640625 -27.828125 C 22.648438 -26.265625 23.722656 -24.082031 23.859375 -21.28125 L 16.03125 -21.28125 C 15.96875 -22.238281 15.609375 -22.992188 14.953125 -23.546875 C 14.304688 -24.097656 13.476562 -24.375 12.46875 -24.375 C 11.59375 -24.375 10.882812 -24.140625 10.34375 -23.671875 C 9.800781 -23.203125 9.53125 -22.53125 9.53125 -21.65625 C 9.53125 -20.695312 9.984375 -19.945312 10.890625 -19.40625 C 11.796875 -18.875 13.210938 -18.296875 15.140625 -17.671875 C 17.054688 -17.023438 18.613281 -16.40625 19.8125 -15.8125 C 21.019531 -15.21875 22.0625 -14.351562 22.9375 -13.21875 C 23.8125 -12.09375 24.25 -10.640625 24.25 -8.859375 C 24.25 -7.160156 23.816406 -5.617188 22.953125 -4.234375 C 22.085938 -2.847656 20.835938 -1.742188 19.203125 -0.921875 C 17.566406 -0.109375 15.628906 0.296875 13.390625 0.296875 Z M 13.390625 0.296875 "/></g></g></g><g fill="#ffffff" fill-opacity="1"><g transform="translate(26.32815, 42.416601)"><g><path d="M 16.703125 0.296875 C 13.898438 0.296875 11.332031 -0.351562 9 -1.65625 C 6.675781 -2.957031 4.828125 -4.769531 3.453125 -7.09375 C 2.085938 -9.425781 1.40625 -12.050781 1.40625 -14.96875 C 1.40625 -17.875 2.085938 -20.484375 3.453125 -22.796875 C 4.828125 -25.117188 6.675781 -26.929688 9 -28.234375 C 11.332031 -29.535156 13.898438 -30.1875 16.703125 -30.1875 C 19.503906 -30.1875 22.066406 -29.535156 24.390625 -28.234375 C 26.722656 -26.929688 28.5625 -25.117188 29.90625 -22.796875 C 31.25 -20.484375 31.921875 -17.875 31.921875 -14.96875 C 31.921875 -12.050781 31.238281 -9.425781 29.875 -7.09375 C 28.519531 -4.769531 26.6875 -2.957031 24.375 -1.65625 C 22.0625 -0.351562 19.503906 0.296875 16.703125 0.296875 Z M 16.703125 -6.3125 C 19.078125 -6.3125 20.976562 -7.101562 22.40625 -8.6875 C 23.832031 -10.269531 24.546875 -12.363281 24.546875 -14.96875 C 24.546875 -17.59375 23.832031 -19.6875 22.40625 -21.25 C 20.976562 -22.820312 19.078125 -23.609375 16.703125 -23.609375 C 14.296875 -23.609375 12.378906 -22.832031 10.953125 -21.28125 C 9.523438 -19.726562 8.8125 -17.625 8.8125 -14.96875 C 8.8125 -12.332031 9.523438 -10.226562 10.953125 -8.65625 C 12.378906 -7.09375 14.296875 -6.3125 16.703125 -6.3125 Z M 16.703125 -6.3125 "/></g></g></g><g fill="#ffffff" fill-opacity="1"><g transform="translate(59.641024, 42.416601)"><g><path d="M 30.5625 -29.765625 L 20.015625 0 L 10.9375 0 L 0.375 -29.765625 L 8.09375 -29.765625 L 15.46875 -7.296875 L 22.890625 -29.765625 Z M 30.5625 -29.765625 "/></g></g></g><g fill="#ffffff" fill-opacity="1"><g transform="translate(90.580457, 42.416601)"><g><path d="M 17.796875 0 L 11.609375 -11.234375 L 9.875 -11.234375 L 9.875 0 L 2.625 0 L 2.625 -29.765625 L 14.796875 -29.765625 C 17.140625 -29.765625 19.132812 -29.351562 20.78125 -28.53125 C 22.4375 -27.707031 23.675781 -26.582031 24.5 -25.15625 C 25.320312 -23.726562 25.734375 -22.140625 25.734375 -20.390625 C 25.734375 -18.410156 25.171875 -16.644531 24.046875 -15.09375 C 22.929688 -13.539062 21.289062 -12.4375 19.125 -11.78125 L 25.984375 0 Z M 9.875 -16.359375 L 14.375 -16.359375 C 15.695312 -16.359375 16.691406 -16.679688 17.359375 -17.328125 C 18.023438 -17.984375 18.359375 -18.90625 18.359375 -20.09375 C 18.359375 -21.21875 18.023438 -22.101562 17.359375 -22.75 C 16.691406 -23.40625 15.695312 -23.734375 14.375 -23.734375 L 9.875 -23.734375 Z M 9.875 -16.359375 "/></g></g></g><g fill="#ffffff" fill-opacity="1"><g transform="translate(118.214026, 42.416601)"><g><path d="M 21.15625 -5.25 L 10.046875 -5.25 L 8.265625 0 L 0.671875 0 L 11.453125 -29.765625 L 19.84375 -29.765625 L 30.609375 0 L 22.9375 0 Z M 19.28125 -10.859375 L 15.59375 -21.75 L 11.953125 -10.859375 Z M 19.28125 -10.859375 "/></g></g></g><g fill="#ffffff" fill-opacity="1"><g transform="translate(149.450128, 42.416601)"><g><path d="M 24.03125 -29.765625 L 24.03125 -23.953125 L 16.15625 -23.953125 L 16.15625 0 L 8.90625 0 L 8.90625 -23.953125 L 1.015625 -23.953125 L 1.015625 -29.765625 Z M 24.03125 -29.765625 "/></g></g></g><g fill="#ffffff" fill-opacity="1"><g transform="translate(174.498337, 42.416601)"><g><path d="M 9.875 -23.953125 L 9.875 -17.9375 L 19.578125 -17.9375 L 19.578125 -12.328125 L 9.875 -12.328125 L 9.875 -5.8125 L 20.859375 -5.8125 L 20.859375 0 L 2.625 0 L 2.625 -29.765625 L 20.859375 -29.765625 L 20.859375 -23.953125 Z M 9.875 -23.953125 "/></g></g></g><g fill="#ffffff" fill-opacity="1"><g transform="translate(197.427416, 42.416601)"><g><path d="M 1.40625 -14.921875 C 1.40625 -17.859375 2.039062 -20.476562 3.3125 -22.78125 C 4.582031 -25.082031 6.351562 -26.875 8.625 -28.15625 C 10.894531 -29.445312 13.472656 -30.09375 16.359375 -30.09375 C 19.890625 -30.09375 22.910156 -29.160156 25.421875 -27.296875 C 27.941406 -25.429688 29.628906 -22.890625 30.484375 -19.671875 L 22.515625 -19.671875 C 21.921875 -20.910156 21.078125 -21.851562 19.984375 -22.5 C 18.898438 -23.15625 17.664062 -23.484375 16.28125 -23.484375 C 14.039062 -23.484375 12.226562 -22.707031 10.84375 -21.15625 C 9.46875 -19.601562 8.78125 -17.523438 8.78125 -14.921875 C 8.78125 -12.316406 9.46875 -10.238281 10.84375 -8.6875 C 12.226562 -7.132812 14.039062 -6.359375 16.28125 -6.359375 C 17.664062 -6.359375 18.898438 -6.679688 19.984375 -7.328125 C 21.078125 -7.984375 21.921875 -8.929688 22.515625 -10.171875 L 30.484375 -10.171875 C 29.628906 -6.953125 27.941406 -4.414062 25.421875 -2.5625 C 22.910156 -0.707031 19.890625 0.21875 16.359375 0.21875 C 13.472656 0.21875 10.894531 -0.421875 8.625 -1.703125 C 6.351562 -2.992188 4.582031 -4.785156 3.3125 -7.078125 C 2.039062 -9.367188 1.40625 -11.984375 1.40625 -14.921875 Z M 1.40625 -14.921875 "/></g></g></g><g fill="#ffffff" fill-opacity="1"><g transform="translate(229.723084, 42.416601)"><g><path d="M 28.40625 -29.765625 L 28.40625 0 L 21.15625 0 L 21.15625 -12.25 L 9.875 -12.25 L 9.875 0 L 2.625 0 L 2.625 -29.765625 L 9.875 -29.765625 L 9.875 -18.09375 L 21.15625 -18.09375 L 21.15625 -29.765625 Z M 28.40625 -29.765625 "/></g></g></g></g></g></svg>